<?xml version="1.0" standalone="no"?>
<!DOCTYPE svg PUBLIC "-//W3C//DTD SVG 20010904//EN"
 "http://www.w3.org/TR/2001/REC-SVG-20010904/DTD/svg10.dtd">
<svg version="1.0" xmlns="http://www.w3.org/2000/svg"
 width="101.000000pt" height="108.000000pt" viewBox="0 0 101.000000 108.000000"
 preserveAspectRatio="xMidYMid meet">

<g transform="translate(0.000000,108.000000) scale(0.100000,-0.100000)"
fill="#000000" stroke="none">
<path d="M417 1007 c-8 -22 -8 -291 1 -304 7 -12 44 -21 91 -22 21 -1 23 -4
18 -37 -8 -47 -23 -64 -57 -64 -34 0 -49 17 -57 64 -6 41 -44 83 -81 93 -43
11 -94 -9 -119 -46 -19 -28 -23 -48 -23 -106 0 -72 0 -73 -31 -86 -121 -50
-172 -200 -106 -312 15 -26 47 -60 69 -75 l42 -27 364 -3 364 -3 39 39 c37 38
39 42 39 105 0 69 -6 77 -55 77 -24 0 -33 9 -78 80 -34 53 -81 80 -139 80 -58
0 -96 -17 -132 -61 l-26 -31 -102 67 c-57 36 -122 71 -145 78 l-43 11 0 66 c0
73 10 90 51 90 36 0 59 -24 59 -62 0 -47 56 -98 109 -98 62 0 104 41 111 111
5 52 6 54 35 55 84 4 75 -16 75 169 l0 165 -134 0 c-102 0 -135 -3 -139 -13z
m223 -67 l0 -30 -85 0 -85 0 0 30 0 30 85 0 85 0 0 -30z m-2 -142 l3 -58 -86
0 -85 0 0 60 0 61 83 -3 82 -3 3 -57z m-224 -414 l116 -76 0 -89 0 -89 -30 0
c-27 0 -30 3 -30 30 0 39 -42 80 -80 80 -21 0 -33 8 -49 35 -26 44 -77 76
-116 73 -22 -2 -30 -8 -30 -22 0 -13 10 -23 30 -29 41 -13 75 -46 75 -72 0
-32 19 -45 67 -45 39 0 43 -2 43 -25 l0 -25 -100 0 c-81 0 -109 4 -140 20 -93
48 -120 171 -53 251 34 40 75 58 134 59 42 0 60 -8 163 -76z m373 -35 c41 -65
74 -98 103 -104 40 -9 40 -46 1 -86 -28 -28 -33 -29 -126 -29 -92 0 -95 1 -85
19 5 11 10 71 10 134 0 62 3 116 6 120 13 13 70 -21 91 -54z m-165 -178 c-38
-51 -44 -40 -40 67 3 91 5 103 28 127 l25 27 3 -98 c2 -83 0 -102 -16 -123z"/>
</g>
</svg>
